<svg xmlns="http://www.w3.org/2000/svg" id="Export_hover" width="18" height="18" viewBox="0 0 18 18">
    <defs>
        <style>
            .cls-1{fill:#4badf4}.cls-2{fill:none}
        </style>
    </defs>
    <path id="Subtraction_22" d="M13.417 13.216c-.041 0-.081 0-.12-.005H3.823A4.163 4.163 0 0 1 4.058 4.9h.01v-.077c0-.041-.005-.083-.005-.125A4.645 4.645 0 0 1 8.639 0a4.609 4.609 0 0 1 4.5 3.839h.078c.065 0 .132-.009.2-.009A4.645 4.645 0 0 1 18 8.521a4.645 4.645 0 0 1-4.583 4.695zM6.728 7.935a.759.759 0 0 0-.536.217.732.732 0 0 0 0 1.05l2.274 2.227a.771.771 0 0 0 1.073 0L11.815 9.2a.732.732 0 0 0 0-1.05.771.771 0 0 0-1.073 0l-.959.94V4.417c0-.263-.355-.581-.8-.581s-.8.318-.8.581v4.641l-.925-.906a.762.762 0 0 0-.53-.217z" class="cls-1" data-name="Subtraction 22" transform="translate(0 2.213)"/>
    <path id="Rectangle_146" d="M0 0h18v18H0z" class="cls-2" data-name="Rectangle 146"/>
</svg>
